<?xml version="1.0" encoding="UTF-8" standalone="no"?>
<!-- Created with Inkscape (http://www.inkscape.org/) -->

<svg
   xmlns:ns0="http://www.iki.fi/pav/software/textext/"
   xmlns:dc="http://purl.org/dc/elements/1.1/"
   xmlns:cc="http://creativecommons.org/ns#"
   xmlns:rdf="http://www.w3.org/1999/02/22-rdf-syntax-ns#"
   xmlns:svg="http://www.w3.org/2000/svg"
   xmlns="http://www.w3.org/2000/svg"
   xmlns:xlink="http://www.w3.org/1999/xlink"
   xmlns:sodipodi="http://sodipodi.sourceforge.net/DTD/sodipodi-0.dtd"
   xmlns:inkscape="http://www.inkscape.org/namespaces/inkscape"
   sodipodi:docname="Algorithm.svg"
   inkscape:version="0.48.4 r9939"
   version="1.1"
   id="svg4286"
   height="283.46457"
   width="354.33069">
  <sodipodi:namedview
     id="base"
     pagecolor="#ffffff"
     bordercolor="#666666"
     borderopacity="1.0"
     inkscape:pageopacity="0.0"
     inkscape:pageshadow="2"
     inkscape:zoom="2.6493611"
     inkscape:cx="64.634144"
     inkscape:cy="156.83026"
     inkscape:document-units="mm"
     inkscape:current-layer="layer1"
     showgrid="true"
     units="mm"
     inkscape:window-width="1600"
     inkscape:window-height="843"
     inkscape:window-x="0"
     inkscape:window-y="24"
     inkscape:window-maximized="1">
    <inkscape:grid
       type="xygrid"
       id="grid4296"
       empspacing="5"
       visible="true"
       enabled="true"
       snapvisiblegridlinesonly="true"
       units="mm"
       spacingx="1mm"
       spacingy="1mm" />
  </sodipodi:namedview>
  <defs
     id="defs4288">
    <inkscape:perspective
       sodipodi:type="inkscape:persp3d"
       inkscape:vp_x="0 : 526.18109 : 1"
       inkscape:vp_y="0 : 1000 : 0"
       inkscape:vp_z="744.09448 : 526.18109 : 1"
       inkscape:persp3d-origin="372.04724 : 350.78739 : 1"
       id="perspective4294" />
    <inkscape:perspective
       id="perspective4103"
       inkscape:persp3d-origin="0.5 : 0.33333333 : 1"
       inkscape:vp_z="1 : 0.5 : 1"
       inkscape:vp_y="0 : 1000 : 0"
       inkscape:vp_x="0 : 0.5 : 1"
       sodipodi:type="inkscape:persp3d" />
    <inkscape:perspective
       sodipodi:type="inkscape:persp3d"
       inkscape:vp_x="0 : 0.5 : 1"
       inkscape:vp_y="0 : 1000 : 0"
       inkscape:vp_z="1 : 0.5 : 1"
       inkscape:persp3d-origin="0.5 : 0.33333333 : 1"
       id="perspective8422" />
  </defs>
  <metadata
     id="metadata4291">
    <rdf:RDF>
      <cc:Work
         rdf:about="">
        <dc:format>image/svg+xml</dc:format>
        <dc:type
           rdf:resource="http://purl.org/dc/dcmitype/StillImage" />
        <dc:title />
      </cc:Work>
    </rdf:RDF>
  </metadata>
  <g
     inkscape:label="Layer 1"
     inkscape:groupmode="layer"
     id="layer1"
     transform="translate(0,-768.89761)">
    <rect
       style="fill:#e8e8e8;fill-opacity:1;stroke:none"
       id="rect10271"
       width="226.77164"
       height="155.90552"
       x="42.519684"
       y="7.0866165"
       transform="translate(0,768.89761)" />
    <rect
       y="797.24408"
       x="56.692902"
       height="131.10236"
       width="198.4252"
       id="rect4303"
       style="fill:#d8d8f0;fill-opacity:1;stroke:none" />
    <rect
       style="fill:#b8b8e5;fill-opacity:1;stroke:none"
       id="rect10122"
       width="170.07875"
       height="95.669266"
       x="70.866127"
       y="822.04724" />
    <rect
       y="861.02362"
       x="85.03936"
       height="46.062962"
       width="141.73228"
       id="rect3529"
       style="fill:#9898e5;fill-opacity:1;stroke:none" />
    <text
       id="text6443"
       y="871.6535"
       x="118.35246"
       style="font-size:8px;font-style:normal;font-variant:normal;font-weight:normal;font-stretch:normal;fill:#000000;fill-opacity:1;stroke:none;font-family:LMRoman10;-inkscape-font-specification:LMRoman10"
       xml:space="preserve"><tspan
         style="font-size:10px;font-weight:bold;-inkscape-font-specification:Bitstream Charter Bold"
         y="871.6535"
         x="118.35246"
         id="tspan6445"
         sodipodi:role="line">Time integrate</tspan></text>
    <text
       transform="translate(0,768.89761)"
       id="text7745"
       y="79.264397"
       x="88.70063"
       style="font-size:8px;font-style:normal;font-variant:normal;font-weight:normal;font-stretch:normal;fill:#000000;fill-opacity:1;stroke:none;font-family:LMRoman10;-inkscape-font-specification:LMRoman10"
       xml:space="preserve"><tspan
         y="79.264397"
         x="88.70063"
         id="tspan7747"
         sodipodi:role="line" /></text>
    <text
       id="text7749"
       y="839.76373"
       x="102.75591"
       style="font-size:10px;font-style:normal;font-variant:normal;font-weight:normal;font-stretch:normal;fill:#000000;fill-opacity:1;stroke:none;font-family:LMRoman10;-inkscape-font-specification:LMRoman10"
       xml:space="preserve"><tspan
         id="tspan7753"
         y="839.76373"
         x="102.75591"
         sodipodi:role="line">Find largest eigenvalues.</tspan></text>
    <text
       transform="translate(0,768.89761)"
       id="text7763"
       y="28.686161"
       x="100.02412"
       style="font-size:10px;font-style:normal;font-variant:normal;font-weight:normal;font-stretch:normal;fill:#000000;fill-opacity:1;stroke:none;font-family:LMRoman10;-inkscape-font-specification:LMRoman10"
       xml:space="preserve"><tspan
         y="28.686161"
         x="100.02412"
         id="tspan7765"
         sodipodi:role="line" /></text>
    <g
       id="g9001"
       transform="translate(-119.6965,653.4216)"
       ns0:preamble=""
       ns0:text="Repeat for all $t_1$ and $t_2$.\n">
      <defs
         id="defs9003">
        <g
           id="g9005">
          <symbol
             id="textext-5f7f0e55-0"
             overflow="visible"
             style="overflow:visible">
            <path
               id="path9008"
               d=""
               style="stroke:none" />
          </symbol>
          <symbol
             id="textext-5f7f0e55-1"
             overflow="visible"
             style="overflow:visible">
            <path
               id="path9011"
               d="m 2.234375,-3.515625 0,-2.578125 c 0,-0.234375 0,-0.359375 0.21875,-0.390625 C 2.546875,-6.5 2.84375,-6.5 3.046875,-6.5 c 0.890625,0 2,0.046875 2,1.484375 0,0.6875 -0.234375,1.5 -1.703125,1.5 l -1.109375,0 z m 2.109375,0.125 c 0.953125,-0.234375 1.734375,-0.84375 1.734375,-1.625 0,-0.953125 -1.140625,-1.796875 -2.59375,-1.796875 l -3.140625,0 0,0.3125 0.25,0 c 0.765625,0 0.78125,0.109375 0.78125,0.46875 l 0,5.25 c 0,0.359375 -0.015625,0.46875 -0.78125,0.46875 l -0.25,0 0,0.3125 c 0.359375,-0.03125 1.078125,-0.03125 1.453125,-0.03125 0.390625,0 1.109375,0 1.46875,0.03125 l 0,-0.3125 -0.25,0 c -0.765625,0 -0.78125,-0.109375 -0.78125,-0.46875 l 0,-2.515625 1.140625,0 c 0.15625,0 0.578125,0 0.9375,0.34375 0.375,0.34375 0.375,0.65625 0.375,1.328125 0,0.640625 0,1.046875 0.40625,1.421875 0.40625,0.359375 0.953125,0.421875 1.25,0.421875 0.78125,0 0.953125,-0.8125 0.953125,-1.09375 0,-0.0625 0,-0.171875 -0.125,-0.171875 -0.109375,0 -0.109375,0.09375 -0.125,0.15625 C 6.984375,-0.171875 6.640625,0 6.390625,0 5.90625,0 5.828125,-0.515625 5.6875,-1.4375 L 5.546875,-2.234375 C 5.375,-2.875 4.890625,-3.203125 4.34375,-3.390625 z m 0,0"
               style="stroke:none" />
          </symbol>
          <symbol
             id="textext-5f7f0e55-2"
             overflow="visible"
             style="overflow:visible">
            <path
               id="path9014"
               d="M 1.109375,-2.515625 C 1.171875,-4 2.015625,-4.25 2.359375,-4.25 c 1.015625,0 1.125,1.34375 1.125,1.734375 l -2.375,0 z m 0,0.21875 2.78125,0 c 0.21875,0 0.25,0 0.25,-0.21875 0,-0.984375 -0.546875,-1.953125 -1.78125,-1.953125 -1.15625,0 -2.078125,1.03125 -2.078125,2.28125 0,1.328125 1.046875,2.296875 2.1875,2.296875 C 3.6875,0.109375 4.140625,-1 4.140625,-1.1875 4.140625,-1.28125 4.0625,-1.3125 4,-1.3125 c -0.078125,0 -0.109375,0.0625 -0.125,0.140625 -0.34375,1.03125 -1.25,1.03125 -1.34375,1.03125 -0.5,0 -0.890625,-0.296875 -1.125,-0.671875 -0.296875,-0.46875 -0.296875,-1.125 -0.296875,-1.484375 z m 0,0"
               style="stroke:none" />
          </symbol>
          <symbol
             id="textext-5f7f0e55-3"
             overflow="visible"
             style="overflow:visible">
            <path
               id="path9017"
               d="m 1.71875,-3.75 0,-0.65625 -1.4375,0.109375 0,0.3125 c 0.703125,0 0.78125,0.0625 0.78125,0.5 l 0,4.65625 C 1.0625,1.625 0.953125,1.625 0.28125,1.625 l 0,0.3125 C 0.625,1.921875 1.140625,1.90625 1.390625,1.90625 c 0.28125,0 0.78125,0.015625 1.125,0.03125 l 0,-0.3125 C 1.859375,1.625 1.75,1.625 1.75,1.171875 l 0,-1.671875 0,-0.09375 c 0.046875,0.171875 0.46875,0.703125 1.21875,0.703125 1.1875,0 2.21875,-0.984375 2.21875,-2.265625 0,-1.265625 -0.953125,-2.25 -2.078125,-2.25 -0.78125,0 -1.203125,0.4375 -1.390625,0.65625 z m 0.03125,2.609375 0,-2.21875 C 2.03125,-3.875 2.515625,-4.15625 3.03125,-4.15625 c 0.734375,0 1.328125,0.875 1.328125,2 0,1.203125 -0.6875,2.046875 -1.421875,2.046875 -0.40625,0 -0.78125,-0.203125 -1.046875,-0.609375 C 1.75,-0.921875 1.75,-0.9375 1.75,-1.140625 z m 0,0"
               style="stroke:none" />
          </symbol>
          <symbol
             id="textext-5f7f0e55-4"
             overflow="visible"
             style="overflow:visible">
            <path
               id="path9020"
               d="m 3.3125,-0.75 c 0.046875,0.390625 0.3125,0.8125 0.78125,0.8125 0.21875,0 0.828125,-0.140625 0.828125,-0.953125 l 0,-0.5625 -0.25,0 0,0.5625 c 0,0.578125 -0.25,0.640625 -0.359375,0.640625 -0.328125,0 -0.375,-0.453125 -0.375,-0.5 l 0,-1.984375 c 0,-0.421875 0,-0.8125 -0.359375,-1.1875 C 3.1875,-4.3125 2.6875,-4.46875 2.21875,-4.46875 c -0.828125,0 -1.515625,0.46875 -1.515625,1.125 0,0.296875 0.203125,0.46875 0.46875,0.46875 0.28125,0 0.453125,-0.203125 0.453125,-0.453125 0,-0.125 -0.046875,-0.453125 -0.515625,-0.453125 C 1.390625,-4.140625 1.875,-4.25 2.1875,-4.25 c 0.5,0 1.0625,0.390625 1.0625,1.28125 l 0,0.359375 c -0.515625,0.03125 -1.203125,0.0625 -1.828125,0.359375 -0.75,0.34375 -1,0.859375 -1,1.296875 0,0.8125 0.96875,1.0625 1.59375,1.0625 0.65625,0 1.109375,-0.40625 1.296875,-0.859375 z M 3.25,-2.390625 l 0,1 c 0,0.9375 -0.71875,1.28125 -1.171875,1.28125 -0.484375,0 -0.890625,-0.34375 -0.890625,-0.84375 0,-0.546875 0.421875,-1.375 2.0625,-1.4375 z m 0,0"
               style="stroke:none" />
          </symbol>
          <symbol
             id="textext-5f7f0e55-5"
             overflow="visible"
             style="overflow:visible">
            <path
               id="path9023"
               d="m 1.71875,-3.984375 1.4375,0 0,-0.3125 -1.4375,0 0,-1.828125 -0.25,0 c 0,0.8125 -0.296875,1.875 -1.28125,1.921875 l 0,0.21875 0.84375,0 0,2.75 c 0,1.21875 0.9375,1.34375 1.296875,1.34375 0.703125,0 0.984375,-0.703125 0.984375,-1.34375 l 0,-0.5625 -0.25,0 0,0.546875 c 0,0.734375 -0.296875,1.109375 -0.671875,1.109375 -0.671875,0 -0.671875,-0.90625 -0.671875,-1.078125 l 0,-2.765625 z m 0,0"
               style="stroke:none" />
          </symbol>
          <symbol
             id="textext-5f7f0e55-6"
             overflow="visible"
             style="overflow:visible">
            <path
               id="path9026"
               d="m 1.75,-4.296875 0,-1.15625 c 0,-0.875 0.46875,-1.359375 0.90625,-1.359375 0.03125,0 0.1875,0 0.328125,0.078125 C 2.875,-6.703125 2.6875,-6.5625 2.6875,-6.3125 c 0,0.21875 0.15625,0.421875 0.4375,0.421875 0.28125,0 0.4375,-0.203125 0.4375,-0.4375 0,-0.375 -0.375,-0.703125 -0.90625,-0.703125 -0.6875,0 -1.546875,0.53125 -1.546875,1.59375 l 0,1.140625 -0.78125,0 0,0.3125 0.78125,0 0,3.234375 c 0,0.4375 -0.109375,0.4375 -0.765625,0.4375 l 0,0.3125 c 0.390625,-0.015625 0.859375,-0.03125 1.125,-0.03125 0.40625,0 0.875,0 1.265625,0.03125 l 0,-0.3125 -0.203125,0 c -0.734375,0 -0.75,-0.109375 -0.75,-0.46875 l 0,-3.203125 1.125,0 0,-0.3125 -1.15625,0 z m 0,0"
               style="stroke:none" />
          </symbol>
          <symbol
             id="textext-5f7f0e55-7"
             overflow="visible"
             style="overflow:visible">
            <path
               id="path9029"
               d="M 4.6875,-2.140625 C 4.6875,-3.40625 3.703125,-4.46875 2.5,-4.46875 c -1.25,0 -2.21875,1.09375 -2.21875,2.328125 0,1.296875 1.03125,2.25 2.203125,2.25 1.203125,0 2.203125,-0.984375 2.203125,-2.25 z m -2.1875,2 c -0.4375,0 -0.875,-0.203125 -1.140625,-0.671875 -0.25,-0.4375 -0.25,-1.046875 -0.25,-1.40625 0,-0.390625 0,-0.921875 0.234375,-1.359375 C 1.609375,-4.03125 2.078125,-4.25 2.484375,-4.25 c 0.4375,0 0.859375,0.21875 1.125,0.65625 0.265625,0.421875 0.265625,1 0.265625,1.375 0,0.359375 0,0.90625 -0.21875,1.34375 C 3.421875,-0.421875 2.984375,-0.140625 2.5,-0.140625 z m 0,0"
               style="stroke:none" />
          </symbol>
          <symbol
             id="textext-5f7f0e55-8"
             overflow="visible"
             style="overflow:visible">
            <path
               id="path9032"
               d="m 1.671875,-3.3125 0,-1.09375 -1.390625,0.109375 0,0.3125 c 0.703125,0 0.78125,0.0625 0.78125,0.5625 l 0,2.671875 c 0,0.4375 -0.109375,0.4375 -0.78125,0.4375 l 0,0.3125 c 0.390625,-0.015625 0.859375,-0.03125 1.140625,-0.03125 0.390625,0 0.859375,0 1.265625,0.03125 l 0,-0.3125 -0.21875,0 c -0.734375,0 -0.75,-0.109375 -0.75,-0.46875 l 0,-1.53125 c 0,-0.984375 0.421875,-1.875 1.171875,-1.875 0.0625,0 0.09375,0 0.109375,0.015625 -0.03125,0 -0.234375,0.125 -0.234375,0.390625 0,0.265625 0.21875,0.421875 0.4375,0.421875 0.171875,0 0.421875,-0.125 0.421875,-0.4375 0,-0.3125 -0.3125,-0.609375 -0.734375,-0.609375 -0.734375,0 -1.09375,0.671875 -1.21875,1.09375 z m 0,0"
               style="stroke:none" />
          </symbol>
          <symbol
             id="textext-5f7f0e55-9"
             overflow="visible"
             style="overflow:visible">
            <path
               id="path9035"
               d="m 1.765625,-6.921875 -1.4375,0.109375 0,0.3125 c 0.703125,0 0.78125,0.0625 0.78125,0.5625 l 0,5.1875 c 0,0.4375 -0.109375,0.4375 -0.78125,0.4375 l 0,0.3125 C 0.65625,-0.015625 1.1875,-0.03125 1.4375,-0.03125 c 0.25,0 0.734375,0.015625 1.109375,0.03125 l 0,-0.3125 c -0.671875,0 -0.78125,0 -0.78125,-0.4375 l 0,-6.171875 z m 0,0"
               style="stroke:none" />
          </symbol>
          <symbol
             id="textext-5f7f0e55-10"
             overflow="visible"
             style="overflow:visible">
            <path
               id="path9038"
               d="m 1.09375,-3.421875 0,2.671875 c 0,0.4375 -0.109375,0.4375 -0.78125,0.4375 l 0,0.3125 c 0.359375,-0.015625 0.859375,-0.03125 1.140625,-0.03125 0.25,0 0.765625,0.015625 1.109375,0.03125 l 0,-0.3125 c -0.671875,0 -0.78125,0 -0.78125,-0.4375 l 0,-1.84375 C 1.78125,-3.625 2.5,-4.1875 3.125,-4.1875 c 0.640625,0 0.75,0.53125 0.75,1.109375 l 0,2.328125 c 0,0.4375 -0.109375,0.4375 -0.78125,0.4375 l 0,0.3125 c 0.34375,-0.015625 0.859375,-0.03125 1.125,-0.03125 0.25,0 0.78125,0.015625 1.109375,0.03125 l 0,-0.3125 c -0.515625,0 -0.765625,0 -0.765625,-0.296875 l 0,-1.90625 c 0,-0.859375 0,-1.15625 -0.3125,-1.515625 -0.140625,-0.171875 -0.46875,-0.375 -1.046875,-0.375 C 2.46875,-4.40625 2,-3.984375 1.71875,-3.359375 l 0,-1.046875 -1.40625,0.109375 0,0.3125 c 0.703125,0 0.78125,0.0625 0.78125,0.5625 z m 0,0"
               style="stroke:none" />
          </symbol>
          <symbol
             id="textext-5f7f0e55-11"
             overflow="visible"
             style="overflow:visible">
            <path
               id="path9041"
               d="m 3.78125,-0.546875 0,0.65625 L 5.25,0 l 0,-0.3125 c -0.6875,0 -0.78125,-0.0625 -0.78125,-0.5625 l 0,-6.046875 -1.421875,0.109375 0,0.3125 c 0.6875,0 0.765625,0.0625 0.765625,0.5625 l 0,2.15625 c -0.28125,-0.359375 -0.71875,-0.625 -1.25,-0.625 -1.171875,0 -2.21875,0.984375 -2.21875,2.265625 0,1.265625 0.96875,2.25 2.109375,2.25 0.640625,0 1.078125,-0.34375 1.328125,-0.65625 z m 0,-2.671875 0,2.046875 c 0,0.171875 0,0.1875 -0.109375,0.359375 C 3.375,-0.328125 2.9375,-0.109375 2.5,-0.109375 2.046875,-0.109375 1.6875,-0.375 1.453125,-0.75 1.203125,-1.15625 1.171875,-1.71875 1.171875,-2.140625 1.171875,-2.5 1.1875,-3.09375 1.46875,-3.546875 1.6875,-3.859375 2.0625,-4.1875 2.609375,-4.1875 c 0.34375,0 0.765625,0.15625 1.0625,0.59375 0.109375,0.171875 0.109375,0.1875 0.109375,0.375 z m 0,0"
               style="stroke:none" />
          </symbol>
          <symbol
             id="textext-5f7f0e55-12"
             overflow="visible"
             style="overflow:visible">
            <path
               id="path9044"
               d="m 1.90625,-0.53125 c 0,-0.28125 -0.234375,-0.53125 -0.515625,-0.53125 -0.296875,0 -0.53125,0.25 -0.53125,0.53125 C 0.859375,-0.234375 1.09375,0 1.390625,0 1.671875,0 1.90625,-0.234375 1.90625,-0.53125 z m 0,0"
               style="stroke:none" />
          </symbol>
          <symbol
             id="textext-5f7f0e55-13"
             overflow="visible"
             style="overflow:visible">
            <path
               id="path9047"
               d=""
               style="stroke:none" />
          </symbol>
          <symbol
             id="textext-5f7f0e55-14"
             overflow="visible"
             style="overflow:visible">
            <path
               id="path9050"
               d="m 2.046875,-3.984375 0.9375,0 c 0.203125,0 0.3125,0 0.3125,-0.203125 0,-0.109375 -0.109375,-0.109375 -0.28125,-0.109375 l -0.875,0 C 2.5,-5.71875 2.546875,-5.90625 2.546875,-5.96875 c 0,-0.171875 -0.125,-0.265625 -0.296875,-0.265625 -0.03125,0 -0.3125,0 -0.390625,0.359375 l -0.390625,1.578125 -0.9375,0 c -0.203125,0 -0.296875,0 -0.296875,0.1875 0,0.125 0.078125,0.125 0.28125,0.125 l 0.875,0 C 0.671875,-1.15625 0.625,-0.984375 0.625,-0.8125 0.625,-0.265625 1,0.109375 1.546875,0.109375 2.5625,0.109375 3.125,-1.34375 3.125,-1.421875 3.125,-1.53125 3.046875,-1.53125 3.015625,-1.53125 2.921875,-1.53125 2.90625,-1.5 2.859375,-1.390625 2.4375,-0.34375 1.90625,-0.109375 1.5625,-0.109375 c -0.203125,0 -0.3125,-0.125 -0.3125,-0.453125 0,-0.25 0.03125,-0.3125 0.0625,-0.484375 l 0.734375,-2.9375 z m 0,0"
               style="stroke:none" />
          </symbol>
          <symbol
             id="textext-5f7f0e55-15"
             overflow="visible"
             style="overflow:visible">
            <path
               id="path9053"
               d=""
               style="stroke:none" />
          </symbol>
          <symbol
             id="textext-5f7f0e55-16"
             overflow="visible"
             style="overflow:visible">
            <path
               id="path9056"
               d="m 2.328125,-4.4375 c 0,-0.1875 0,-0.1875 -0.203125,-0.1875 -0.453125,0.4375 -1.078125,0.4375 -1.359375,0.4375 l 0,0.25 c 0.15625,0 0.625,0 1,-0.1875 l 0,3.546875 c 0,0.234375 0,0.328125 -0.6875,0.328125 l -0.265625,0 0,0.25 c 0.125,0 0.984375,-0.03125 1.234375,-0.03125 0.21875,0 1.09375,0.03125 1.25,0.03125 l 0,-0.25 -0.265625,0 c -0.703125,0 -0.703125,-0.09375 -0.703125,-0.328125 l 0,-3.859375 z m 0,0"
               style="stroke:none" />
          </symbol>
          <symbol
             id="textext-5f7f0e55-17"
             overflow="visible"
             style="overflow:visible">
            <path
               id="path9059"
               d="m 3.515625,-1.265625 -0.234375,0 c -0.015625,0.15625 -0.09375,0.5625 -0.1875,0.625 -0.046875,0.046875 -0.578125,0.046875 -0.6875,0.046875 l -1.28125,0 c 0.734375,-0.640625 0.984375,-0.84375 1.390625,-1.171875 0.515625,-0.40625 1,-0.84375 1,-1.5 0,-0.84375 -0.734375,-1.359375 -1.625,-1.359375 -0.859375,0 -1.453125,0.609375 -1.453125,1.25 0,0.34375 0.296875,0.390625 0.375,0.390625 0.15625,0 0.359375,-0.125 0.359375,-0.375 0,-0.125 -0.046875,-0.375 -0.40625,-0.375 C 0.984375,-4.21875 1.453125,-4.375 1.78125,-4.375 c 0.703125,0 1.0625,0.546875 1.0625,1.109375 0,0.609375 -0.4375,1.078125 -0.65625,1.328125 L 0.515625,-0.265625 C 0.4375,-0.203125 0.4375,-0.1875 0.4375,0 l 2.875,0 0.203125,-1.265625 z m 0,0"
               style="stroke:none" />
          </symbol>
        </g>
      </defs>
      <g
         id="textext-5f7f0e55-18">
        <g
           id="g9062"
           style="fill:#000000;fill-opacity:1">
          <use
             id="use9064"
             y="134.765"
             x="223.43201"
             xlink:href="#textext-5f7f0e55-1"
             width="354.33069"
             height="283.46457" />
          <use
             id="use9066"
             y="134.765"
             x="230.76547"
             xlink:href="#textext-5f7f0e55-2"
             width="354.33069"
             height="283.46457" />
          <use
             id="use9068"
             y="134.765"
             x="235.19286"
             xlink:href="#textext-5f7f0e55-3"
             width="354.33069"
             height="283.46457" />
        </g>
        <g
           id="g9070"
           style="fill:#000000;fill-opacity:1">
          <use
             id="use9072"
             y="134.765"
             x="241.00702"
             xlink:href="#textext-5f7f0e55-2"
             width="354.33069"
             height="283.46457" />
          <use
             id="use9074"
             y="134.765"
             x="245.4344"
             xlink:href="#textext-5f7f0e55-4"
             width="354.33069"
             height="283.46457" />
          <use
             id="use9076"
             y="134.765"
             x="250.4157"
             xlink:href="#textext-5f7f0e55-5"
             width="354.33069"
             height="283.46457" />
        </g>
        <g
           id="g9078"
           style="fill:#000000;fill-opacity:1">
          <use
             id="use9080"
             y="134.765"
             x="257.6077"
             xlink:href="#textext-5f7f0e55-6"
             width="354.33069"
             height="283.46457" />
          <use
             id="use9082"
             y="134.765"
             x="260.65228"
             xlink:href="#textext-5f7f0e55-7"
             width="354.33069"
             height="283.46457" />
          <use
             id="use9084"
             y="134.765"
             x="265.63358"
             xlink:href="#textext-5f7f0e55-8"
             width="354.33069"
             height="283.46457" />
        </g>
        <g
           id="g9086"
           style="fill:#000000;fill-opacity:1">
          <use
             id="use9088"
             y="134.765"
             x="272.85349"
             xlink:href="#textext-5f7f0e55-4"
             width="354.33069"
             height="283.46457" />
          <use
             id="use9090"
             y="134.765"
             x="277.83478"
             xlink:href="#textext-5f7f0e55-9"
             width="354.33069"
             height="283.46457" />
          <use
             id="use9092"
             y="134.765"
             x="280.60239"
             xlink:href="#textext-5f7f0e55-9"
             width="354.33069"
             height="283.46457" />
        </g>
        <g
           id="g9094"
           style="fill:#000000;fill-opacity:1">
          <use
             id="use9096"
             y="134.765"
             x="286.69501"
             xlink:href="#textext-5f7f0e55-14"
             width="354.33069"
             height="283.46457" />
        </g>
        <g
           id="g9098"
           style="fill:#000000;fill-opacity:1">
          <use
             id="use9100"
             y="136.259"
             x="290.293"
             xlink:href="#textext-5f7f0e55-16"
             width="354.33069"
             height="283.46457" />
        </g>
        <g
           id="g9102"
           style="fill:#000000;fill-opacity:1">
          <use
             id="use9104"
             y="134.765"
             x="298.08301"
             xlink:href="#textext-5f7f0e55-4"
             width="354.33069"
             height="283.46457" />
          <use
             id="use9106"
             y="134.765"
             x="303.0643"
             xlink:href="#textext-5f7f0e55-10"
             width="354.33069"
             height="283.46457" />
          <use
             id="use9108"
             y="134.765"
             x="308.59952"
             xlink:href="#textext-5f7f0e55-11"
             width="354.33069"
             height="283.46457" />
        </g>
        <g
           id="g9110"
           style="fill:#000000;fill-opacity:1">
          <use
             id="use9112"
             y="134.765"
             x="317.45499"
             xlink:href="#textext-5f7f0e55-14"
             width="354.33069"
             height="283.46457" />
        </g>
        <g
           id="g9114"
           style="fill:#000000;fill-opacity:1">
          <use
             id="use9116"
             y="136.259"
             x="321.052"
             xlink:href="#textext-5f7f0e55-17"
             width="354.33069"
             height="283.46457" />
        </g>
        <g
           id="g9118"
           style="fill:#000000;fill-opacity:1">
          <use
             id="use9120"
             y="134.765"
             x="325.522"
             xlink:href="#textext-5f7f0e55-12"
             width="354.33069"
             height="283.46457" />
        </g>
      </g>
    </g>
    <g
       ns0:text="Maximize over all $k$.\n"
       ns0:preamble="/home/shreyas/Grants/Career2013/draft/Figures/preamble.tex"
       transform="translate(-111.69662,678.22475)"
       id="g4263">
      <defs
         id="defs4265">
        <g
           id="g4267">
          <symbol
             style="overflow:visible"
             overflow="visible"
             id="textext-8582ede8-0">
            <path
               inkscape:connector-curvature="0"
               style="stroke:none"
               d=""
               id="path4270" />
          </symbol>
          <symbol
             style="overflow:visible"
             overflow="visible"
             id="textext-8582ede8-1">
            <path
               inkscape:connector-curvature="0"
               style="stroke:none"
               d="M 2.40625,-6.59375 C 2.3125,-6.8125 2.28125,-6.8125 2.046875,-6.8125 l -1.671875,0 0,0.3125 0.234375,0 c 0.765625,0 0.78125,0.109375 0.78125,0.46875 l 0,4.984375 c 0,0.265625 0,0.734375 -1.015625,0.734375 L 0.375,0 c 0.34375,-0.015625 0.828125,-0.03125 1.15625,-0.03125 0.328125,0 0.828125,0.015625 1.171875,0.03125 l 0,-0.3125 c -1.03125,0 -1.03125,-0.46875 -1.03125,-0.734375 l 0,-5.375 0.015625,0 2.40625,6.203125 C 4.140625,-0.09375 4.1875,0 4.28125,0 4.390625,0 4.421875,-0.078125 4.46875,-0.1875 L 6.921875,-6.5 l 0,5.71875 c 0,0.359375 -0.015625,0.46875 -0.78125,0.46875 l -0.234375,0 0,0.3125 c 0.359375,-0.03125 1.046875,-0.03125 1.4375,-0.03125 0.375,0 1.046875,0 1.421875,0.03125 l 0,-0.3125 -0.25,0 c -0.765625,0 -0.78125,-0.109375 -0.78125,-0.46875 l 0,-5.25 C 7.734375,-6.390625 7.75,-6.5 8.515625,-6.5 l 0.25,0 0,-0.3125 -1.6875,0 C 6.8125,-6.8125 6.8125,-6.796875 6.75,-6.625 L 4.5625,-1 z m 0,0"
               id="path4273" />
          </symbol>
          <symbol
             style="overflow:visible"
             overflow="visible"
             id="textext-8582ede8-2">
            <path
               inkscape:connector-curvature="0"
               style="stroke:none"
               d="m 3.3125,-0.75 c 0.046875,0.390625 0.3125,0.8125 0.78125,0.8125 0.21875,0 0.828125,-0.140625 0.828125,-0.953125 l 0,-0.5625 -0.25,0 0,0.5625 c 0,0.578125 -0.25,0.640625 -0.359375,0.640625 -0.328125,0 -0.375,-0.453125 -0.375,-0.5 l 0,-1.984375 c 0,-0.421875 0,-0.8125 -0.359375,-1.1875 C 3.1875,-4.3125 2.6875,-4.46875 2.21875,-4.46875 c -0.828125,0 -1.515625,0.46875 -1.515625,1.125 0,0.296875 0.203125,0.46875 0.46875,0.46875 0.28125,0 0.453125,-0.203125 0.453125,-0.453125 0,-0.125 -0.046875,-0.453125 -0.515625,-0.453125 C 1.390625,-4.140625 1.875,-4.25 2.1875,-4.25 c 0.5,0 1.0625,0.390625 1.0625,1.28125 l 0,0.359375 c -0.515625,0.03125 -1.203125,0.0625 -1.828125,0.359375 -0.75,0.34375 -1,0.859375 -1,1.296875 0,0.8125 0.96875,1.0625 1.59375,1.0625 0.65625,0 1.109375,-0.40625 1.296875,-0.859375 z M 3.25,-2.390625 l 0,1 c 0,0.9375 -0.71875,1.28125 -1.171875,1.28125 -0.484375,0 -0.890625,-0.34375 -0.890625,-0.84375 0,-0.546875 0.421875,-1.375 2.0625,-1.4375 z m 0,0"
               id="path4276" />
          </symbol>
          <symbol
             style="overflow:visible"
             overflow="visible"
             id="textext-8582ede8-3">
            <path
               inkscape:connector-curvature="0"
               style="stroke:none"
               d="M 2.859375,-2.34375 C 3.15625,-2.71875 3.53125,-3.203125 3.78125,-3.46875 4.09375,-3.828125 4.5,-3.984375 4.96875,-3.984375 l 0,-0.3125 c -0.265625,0.015625 -0.5625,0.03125 -0.828125,0.03125 -0.296875,0 -0.828125,-0.015625 -0.953125,-0.03125 l 0,0.3125 c 0.21875,0.015625 0.296875,0.140625 0.296875,0.3125 0,0.15625 -0.109375,0.28125 -0.15625,0.34375 L 2.71875,-2.546875 1.9375,-3.5625 C 1.84375,-3.65625 1.84375,-3.671875 1.84375,-3.734375 c 0,-0.15625 0.15625,-0.25 0.34375,-0.25 l 0,-0.3125 c -0.25,0.015625 -0.90625,0.03125 -1.078125,0.03125 -0.203125,0 -0.671875,-0.015625 -0.9375,-0.03125 l 0,0.3125 c 0.703125,0 0.703125,0 1.171875,0.609375 l 0.984375,1.28125 -0.9375,1.1875 C 0.921875,-0.328125 0.328125,-0.3125 0.125,-0.3125 L 0.125,0 c 0.25,-0.015625 0.5625,-0.03125 0.828125,-0.03125 0.28125,0 0.703125,0.015625 0.9375,0.03125 l 0,-0.3125 c -0.21875,-0.03125 -0.28125,-0.15625 -0.28125,-0.3125 0,-0.21875 0.28125,-0.546875 0.890625,-1.265625 l 0.765625,1 C 3.34375,-0.78125 3.46875,-0.625 3.46875,-0.5625 c 0,0.09375 -0.09375,0.25 -0.359375,0.25 l 0,0.3125 C 3.40625,-0.015625 3.96875,-0.03125 4.1875,-0.03125 c 0.265625,0 0.65625,0.015625 0.953125,0.03125 l 0,-0.3125 c -0.53125,0 -0.71875,-0.015625 -0.9375,-0.3125 z m 0,0"
               id="path4279" />
          </symbol>
          <symbol
             style="overflow:visible"
             overflow="visible"
             id="textext-8582ede8-4">
            <path
               inkscape:connector-curvature="0"
               style="stroke:none"
               d="M 1.765625,-4.40625 0.375,-4.296875 l 0,0.3125 c 0.640625,0 0.734375,0.0625 0.734375,0.546875 l 0,2.6875 c 0,0.4375 -0.109375,0.4375 -0.78125,0.4375 l 0,0.3125 C 0.640625,-0.015625 1.1875,-0.03125 1.421875,-0.03125 1.78125,-0.03125 2.125,-0.015625 2.46875,0 l 0,-0.3125 c -0.671875,0 -0.703125,-0.046875 -0.703125,-0.4375 z m 0.03125,-1.734375 c 0,-0.3125 -0.234375,-0.53125 -0.515625,-0.53125 -0.3125,0 -0.53125,0.265625 -0.53125,0.53125 0,0.265625 0.21875,0.53125 0.53125,0.53125 0.28125,0 0.515625,-0.21875 0.515625,-0.53125 z m 0,0"
               id="path4282" />
          </symbol>
          <symbol
             style="overflow:visible"
             overflow="visible"
             id="textext-8582ede8-5">
            <path
               inkscape:connector-curvature="0"
               style="stroke:none"
               d="m 1.09375,-3.421875 0,2.671875 c 0,0.4375 -0.109375,0.4375 -0.78125,0.4375 l 0,0.3125 c 0.359375,-0.015625 0.859375,-0.03125 1.140625,-0.03125 0.25,0 0.765625,0.015625 1.109375,0.03125 l 0,-0.3125 c -0.671875,0 -0.78125,0 -0.78125,-0.4375 l 0,-1.84375 C 1.78125,-3.625 2.5,-4.1875 3.125,-4.1875 c 0.640625,0 0.75,0.53125 0.75,1.109375 l 0,2.328125 c 0,0.4375 -0.109375,0.4375 -0.78125,0.4375 l 0,0.3125 c 0.34375,-0.015625 0.859375,-0.03125 1.125,-0.03125 0.25,0 0.78125,0.015625 1.109375,0.03125 l 0,-0.3125 c -0.65625,0 -0.765625,0 -0.765625,-0.4375 l 0,-1.84375 c 0,-1.03125 0.703125,-1.59375 1.34375,-1.59375 0.625,0 0.734375,0.53125 0.734375,1.109375 l 0,2.328125 c 0,0.4375 -0.109375,0.4375 -0.78125,0.4375 l 0,0.3125 c 0.34375,-0.015625 0.859375,-0.03125 1.125,-0.03125 0.265625,0 0.78125,0.015625 1.125,0.03125 l 0,-0.3125 c -0.515625,0 -0.765625,0 -0.78125,-0.296875 l 0,-1.90625 c 0,-0.859375 0,-1.15625 -0.3125,-1.515625 -0.140625,-0.171875 -0.46875,-0.375 -1.046875,-0.375 -0.828125,0 -1.28125,0.59375 -1.4375,0.984375 C 4.390625,-4.296875 3.65625,-4.40625 3.203125,-4.40625 2.46875,-4.40625 2,-3.984375 1.71875,-3.359375 l 0,-1.046875 -1.40625,0.109375 0,0.3125 c 0.703125,0 0.78125,0.0625 0.78125,0.5625 z m 0,0"
               id="path4285" />
          </symbol>
          <symbol
             style="overflow:visible"
             overflow="visible"
             id="textext-8582ede8-6">
            <path
               inkscape:connector-curvature="0"
               style="stroke:none"
               d="m 3.890625,-4 c 0.09375,-0.109375 0.09375,-0.125 0.09375,-0.171875 0,-0.125 -0.09375,-0.125 -0.265625,-0.125 l -3.1875,0 -0.109375,1.609375 0.25,0 c 0.0625,-1.015625 0.25,-1.390625 1.34375,-1.390625 l 1.140625,0 L 0.375,-0.3125 C 0.28125,-0.203125 0.28125,-0.1875 0.28125,-0.140625 0.28125,0 0.34375,0 0.53125,0 L 3.828125,0 4,-1.859375 l -0.25,0 C 3.65625,-0.6875 3.453125,-0.25 2.296875,-0.25 l -1.1875,0 z m 0,0"
               id="path4288" />
          </symbol>
          <symbol
             style="overflow:visible"
             overflow="visible"
             id="textext-8582ede8-7">
            <path
               inkscape:connector-curvature="0"
               style="stroke:none"
               d="M 1.109375,-2.515625 C 1.171875,-4 2.015625,-4.25 2.359375,-4.25 c 1.015625,0 1.125,1.34375 1.125,1.734375 z m 0,0.21875 2.78125,0 c 0.21875,0 0.25,0 0.25,-0.21875 0,-0.984375 -0.546875,-1.953125 -1.78125,-1.953125 -1.15625,0 -2.078125,1.03125 -2.078125,2.28125 0,1.328125 1.046875,2.296875 2.1875,2.296875 C 3.6875,0.109375 4.140625,-1 4.140625,-1.1875 4.140625,-1.28125 4.0625,-1.3125 4,-1.3125 c -0.078125,0 -0.109375,0.0625 -0.125,0.140625 -0.34375,1.03125 -1.25,1.03125 -1.34375,1.03125 -0.5,0 -0.890625,-0.296875 -1.125,-0.671875 -0.296875,-0.46875 -0.296875,-1.125 -0.296875,-1.484375 z m 0,0"
               id="path4291" />
          </symbol>
          <symbol
             style="overflow:visible"
             overflow="visible"
             id="textext-8582ede8-8">
            <path
               inkscape:connector-curvature="0"
               style="stroke:none"
               d="M 4.6875,-2.140625 C 4.6875,-3.40625 3.703125,-4.46875 2.5,-4.46875 c -1.25,0 -2.21875,1.09375 -2.21875,2.328125 0,1.296875 1.03125,2.25 2.203125,2.25 1.203125,0 2.203125,-0.984375 2.203125,-2.25 z m -2.1875,2 c -0.4375,0 -0.875,-0.203125 -1.140625,-0.671875 -0.25,-0.4375 -0.25,-1.046875 -0.25,-1.40625 0,-0.390625 0,-0.921875 0.234375,-1.359375 C 1.609375,-4.03125 2.078125,-4.25 2.484375,-4.25 c 0.4375,0 0.859375,0.21875 1.125,0.65625 0.265625,0.421875 0.265625,1 0.265625,1.375 0,0.359375 0,0.90625 -0.21875,1.34375 C 3.421875,-0.421875 2.984375,-0.140625 2.5,-0.140625 z m 0,0"
               id="path4294" />
          </symbol>
          <symbol
             style="overflow:visible"
             overflow="visible"
             id="textext-8582ede8-9">
            <path
               inkscape:connector-curvature="0"
               style="stroke:none"
               d="M 4.140625,-3.3125 C 4.234375,-3.546875 4.40625,-3.984375 5.0625,-3.984375 l 0,-0.3125 c -0.234375,0.015625 -0.515625,0.03125 -0.75,0.03125 -0.234375,0 -0.6875,-0.015625 -0.859375,-0.03125 l 0,0.3125 c 0.359375,0 0.46875,0.234375 0.46875,0.421875 0,0.09375 -0.015625,0.140625 -0.046875,0.25 L 2.84375,-0.78125 1.734375,-3.5625 c -0.0625,-0.125 -0.0625,-0.140625 -0.0625,-0.171875 0,-0.25 0.390625,-0.25 0.578125,-0.25 l 0,-0.3125 c -0.3125,0.015625 -0.859375,0.03125 -1.09375,0.03125 -0.265625,0 -0.671875,-0.015625 -0.96875,-0.03125 l 0,0.3125 c 0.625,0 0.671875,0.0625 0.796875,0.359375 l 1.4375,3.546875 C 2.484375,0.0625 2.5,0.109375 2.625,0.109375 c 0.140625,0 0.171875,-0.09375 0.21875,-0.1875 z m 0,0"
               id="path4297" />
          </symbol>
          <symbol
             style="overflow:visible"
             overflow="visible"
             id="textext-8582ede8-10">
            <path
               inkscape:connector-curvature="0"
               style="stroke:none"
               d="m 1.671875,-3.3125 0,-1.09375 -1.390625,0.109375 0,0.3125 c 0.703125,0 0.78125,0.0625 0.78125,0.5625 l 0,2.671875 c 0,0.4375 -0.109375,0.4375 -0.78125,0.4375 l 0,0.3125 c 0.390625,-0.015625 0.859375,-0.03125 1.140625,-0.03125 0.390625,0 0.859375,0 1.265625,0.03125 l 0,-0.3125 -0.21875,0 c -0.734375,0 -0.75,-0.109375 -0.75,-0.46875 l 0,-1.53125 c 0,-0.984375 0.421875,-1.875 1.171875,-1.875 0.0625,0 0.09375,0 0.109375,0.015625 -0.03125,0 -0.234375,0.125 -0.234375,0.390625 0,0.265625 0.21875,0.421875 0.4375,0.421875 0.171875,0 0.421875,-0.125 0.421875,-0.4375 0,-0.3125 -0.3125,-0.609375 -0.734375,-0.609375 -0.734375,0 -1.09375,0.671875 -1.21875,1.09375 z m 0,0"
               id="path4300" />
          </symbol>
          <symbol
             style="overflow:visible"
             overflow="visible"
             id="textext-8582ede8-11">
            <path
               inkscape:connector-curvature="0"
               style="stroke:none"
               d="m 1.765625,-6.921875 -1.4375,0.109375 0,0.3125 c 0.703125,0 0.78125,0.0625 0.78125,0.5625 l 0,5.1875 c 0,0.4375 -0.109375,0.4375 -0.78125,0.4375 l 0,0.3125 C 0.65625,-0.015625 1.1875,-0.03125 1.4375,-0.03125 c 0.25,0 0.734375,0.015625 1.109375,0.03125 l 0,-0.3125 c -0.671875,0 -0.78125,0 -0.78125,-0.4375 z m 0,0"
               id="path4303" />
          </symbol>
          <symbol
             style="overflow:visible"
             overflow="visible"
             id="textext-8582ede8-12">
            <path
               inkscape:connector-curvature="0"
               style="stroke:none"
               d="m 1.90625,-0.53125 c 0,-0.28125 -0.234375,-0.53125 -0.515625,-0.53125 -0.296875,0 -0.53125,0.25 -0.53125,0.53125 C 0.859375,-0.234375 1.09375,0 1.390625,0 1.671875,0 1.90625,-0.234375 1.90625,-0.53125 z m 0,0"
               id="path4306" />
          </symbol>
          <symbol
             style="overflow:visible"
             overflow="visible"
             id="textext-8582ede8-13">
            <path
               inkscape:connector-curvature="0"
               style="stroke:none"
               d=""
               id="path4309" />
          </symbol>
          <symbol
             style="overflow:visible"
             overflow="visible"
             id="textext-8582ede8-14">
            <path
               inkscape:connector-curvature="0"
               style="stroke:none"
               d="m 2.859375,-6.8125 c 0,0 0,-0.109375 -0.125,-0.109375 -0.234375,0 -0.953125,0.078125 -1.21875,0.109375 -0.078125,0 -0.1875,0.015625 -0.1875,0.1875 0,0.125 0.09375,0.125 0.234375,0.125 0.484375,0 0.5,0.0625 0.5,0.171875 L 2.03125,-6.125 0.59375,-0.390625 c -0.046875,0.140625 -0.046875,0.15625 -0.046875,0.21875 0,0.234375 0.203125,0.28125 0.296875,0.28125 0.125,0 0.265625,-0.09375 0.328125,-0.203125 0.046875,-0.09375 0.5,-1.9375 0.5625,-2.1875 0.34375,0.03125 1.15625,0.1875 1.15625,0.84375 0,0.078125 0,0.109375 -0.03125,0.21875 -0.015625,0.109375 -0.03125,0.234375 -0.03125,0.34375 0,0.578125 0.390625,0.984375 0.90625,0.984375 0.296875,0 0.578125,-0.15625 0.796875,-0.53125 0.25,-0.4375 0.359375,-0.984375 0.359375,-1 0,-0.109375 -0.09375,-0.109375 -0.125,-0.109375 -0.09375,0 -0.109375,0.046875 -0.140625,0.1875 -0.203125,0.71875 -0.421875,1.234375 -0.859375,1.234375 -0.203125,0 -0.328125,-0.109375 -0.328125,-0.46875 0,-0.171875 0.046875,-0.40625 0.078125,-0.5625 C 3.5625,-1.3125 3.5625,-1.34375 3.5625,-1.453125 3.5625,-2.09375 2.9375,-2.375 2.078125,-2.5 2.390625,-2.671875 2.71875,-2.984375 2.9375,-3.234375 3.421875,-3.765625 3.875,-4.1875 4.359375,-4.1875 c 0.0625,0 0.078125,0 0.09375,0.015625 0.125,0.015625 0.125,0.015625 0.21875,0.078125 0.015625,0 0.015625,0.015625 0.03125,0.03125 -0.46875,0.03125 -0.5625,0.421875 -0.5625,0.546875 0,0.15625 0.109375,0.34375 0.375,0.34375 0.265625,0 0.546875,-0.21875 0.546875,-0.609375 0,-0.296875 -0.234375,-0.625 -0.671875,-0.625 -0.28125,0 -0.734375,0.078125 -1.453125,0.875 -0.34375,0.375 -0.734375,0.78125 -1.109375,0.921875 z m 0,0"
               id="path4312" />
          </symbol>
        </g>
      </defs>
      <g
         id="textext-8582ede8-15">
        <g
           style="fill:#000000;fill-opacity:1"
           id="g4315">
          <use
             height="283.46457"
             width="354.33069"
             xlink:href="#textext-8582ede8-1"
             x="223.43201"
             y="134.765"
             id="use4317" />
          <use
             height="283.46457"
             width="354.33069"
             xlink:href="#textext-8582ede8-2"
             x="232.56471"
             y="134.765"
             id="use4319" />
          <use
             height="283.46457"
             width="354.33069"
             xlink:href="#textext-8582ede8-3"
             x="237.54602"
             y="134.765"
             id="use4321" />
          <use
             height="283.46457"
             width="354.33069"
             xlink:href="#textext-8582ede8-4"
             x="242.80428"
             y="134.765"
             id="use4323" />
          <use
             height="283.46457"
             width="354.33069"
             xlink:href="#textext-8582ede8-5"
             x="245.57188"
             y="134.765"
             id="use4325" />
          <use
             height="283.46457"
             width="354.33069"
             xlink:href="#textext-8582ede8-4"
             x="253.87372"
             y="134.765"
             id="use4327" />
          <use
             height="283.46457"
             width="354.33069"
             xlink:href="#textext-8582ede8-6"
             x="256.64133"
             y="134.765"
             id="use4329" />
          <use
             height="283.46457"
             width="354.33069"
             xlink:href="#textext-8582ede8-7"
             x="261.0687"
             y="134.765"
             id="use4331" />
        </g>
        <g
           style="fill:#000000;fill-opacity:1"
           id="g4333">
          <use
             height="283.46457"
             width="354.33069"
             xlink:href="#textext-8582ede8-8"
             x="268.81363"
             y="134.765"
             id="use4335" />
        </g>
        <g
           style="fill:#000000;fill-opacity:1"
           id="g4337">
          <use
             height="283.46457"
             width="354.33069"
             xlink:href="#textext-8582ede8-9"
             x="273.52594"
             y="134.765"
             id="use4339" />
        </g>
        <g
           style="fill:#000000;fill-opacity:1"
           id="g4341">
          <use
             height="283.46457"
             width="354.33069"
             xlink:href="#textext-8582ede8-7"
             x="278.50525"
             y="134.765"
             id="use4343" />
          <use
             height="283.46457"
             width="354.33069"
             xlink:href="#textext-8582ede8-10"
             x="282.93262"
             y="134.765"
             id="use4345" />
        </g>
        <g
           style="fill:#000000;fill-opacity:1"
           id="g4347">
          <use
             height="283.46457"
             width="354.33069"
             xlink:href="#textext-8582ede8-2"
             x="290.15253"
             y="134.765"
             id="use4349" />
          <use
             height="283.46457"
             width="354.33069"
             xlink:href="#textext-8582ede8-11"
             x="295.13382"
             y="134.765"
             id="use4351" />
          <use
             height="283.46457"
             width="354.33069"
             xlink:href="#textext-8582ede8-11"
             x="297.90143"
             y="134.765"
             id="use4353" />
        </g>
        <g
           style="fill:#000000;fill-opacity:1"
           id="g4355">
          <use
             height="283.46457"
             width="354.33069"
             xlink:href="#textext-8582ede8-14"
             x="303.991"
             y="134.765"
             id="use4357" />
        </g>
        <g
           style="fill:#000000;fill-opacity:1"
           id="g4359">
          <use
             height="283.46457"
             width="354.33069"
             xlink:href="#textext-8582ede8-12"
             x="309.491"
             y="134.765"
             id="use4361" />
        </g>
      </g>
    </g>
    <g
       id="g4817"
       transform="translate(-137.04242,748.79043)"
       ns0:preamble="/home/shreyas/Grants/Career2013/draft/Figures/preamble.tex"
       ns0:text="For a given $t_1, t_2, k, \\xi(z,t=t_1)$, \\\\[1mm]\n$~~~~~~~~ \\xi(z,t_2) = \\mathcal{A}~ \\xi(z,t_1)$.\n">
      <defs
         id="defs4819">
        <g
           id="g4821">
          <symbol
             id="textext-7b6cb8b9-0"
             overflow="visible">
            <path
               id="path4824"
               d=""
               style="stroke:none;" />
          </symbol>
          <symbol
             id="textext-7b6cb8b9-1"
             overflow="visible">
            <path
               id="path4827"
               d="M 5.796875 -6.78125 L 0.328125 -6.78125 L 0.328125 -6.46875 L 0.5625 -6.46875 C 1.328125 -6.46875 1.359375 -6.359375 1.359375 -6 L 1.359375 -0.78125 C 1.359375 -0.421875 1.328125 -0.3125 0.5625 -0.3125 L 0.328125 -0.3125 L 0.328125 0 C 0.671875 -0.03125 1.453125 -0.03125 1.84375 -0.03125 C 2.25 -0.03125 3.15625 -0.03125 3.515625 0 L 3.515625 -0.3125 L 3.1875 -0.3125 C 2.25 -0.3125 2.25 -0.4375 2.25 -0.78125 L 2.25 -3.234375 L 3.09375 -3.234375 C 4.0625 -3.234375 4.15625 -2.921875 4.15625 -2.078125 L 4.40625 -2.078125 L 4.40625 -4.71875 L 4.15625 -4.71875 C 4.15625 -3.875 4.0625 -3.546875 3.09375 -3.546875 L 2.25 -3.546875 L 2.25 -6.078125 C 2.25 -6.40625 2.265625 -6.46875 2.734375 -6.46875 L 3.921875 -6.46875 C 5.421875 -6.46875 5.671875 -5.90625 5.828125 -4.53125 L 6.078125 -4.53125 Z M 5.796875 -6.78125 "
               style="stroke:none;" />
          </symbol>
          <symbol
             id="textext-7b6cb8b9-2"
             overflow="visible">
            <path
               id="path4830"
               d="M 4.6875 -2.140625 C 4.6875 -3.40625 3.703125 -4.46875 2.5 -4.46875 C 1.25 -4.46875 0.28125 -3.375 0.28125 -2.140625 C 0.28125 -0.84375 1.3125 0.109375 2.484375 0.109375 C 3.6875 0.109375 4.6875 -0.875 4.6875 -2.140625 Z M 2.5 -0.140625 C 2.0625 -0.140625 1.625 -0.34375 1.359375 -0.8125 C 1.109375 -1.25 1.109375 -1.859375 1.109375 -2.21875 C 1.109375 -2.609375 1.109375 -3.140625 1.34375 -3.578125 C 1.609375 -4.03125 2.078125 -4.25 2.484375 -4.25 C 2.921875 -4.25 3.34375 -4.03125 3.609375 -3.59375 C 3.875 -3.171875 3.875 -2.59375 3.875 -2.21875 C 3.875 -1.859375 3.875 -1.3125 3.65625 -0.875 C 3.421875 -0.421875 2.984375 -0.140625 2.5 -0.140625 Z M 2.5 -0.140625 "
               style="stroke:none;" />
          </symbol>
          <symbol
             id="textext-7b6cb8b9-3"
             overflow="visible">
            <path
               id="path4833"
               d="M 1.671875 -3.3125 L 1.671875 -4.40625 L 0.28125 -4.296875 L 0.28125 -3.984375 C 0.984375 -3.984375 1.0625 -3.921875 1.0625 -3.421875 L 1.0625 -0.75 C 1.0625 -0.3125 0.953125 -0.3125 0.28125 -0.3125 L 0.28125 0 C 0.671875 -0.015625 1.140625 -0.03125 1.421875 -0.03125 C 1.8125 -0.03125 2.28125 -0.03125 2.6875 0 L 2.6875 -0.3125 L 2.46875 -0.3125 C 1.734375 -0.3125 1.71875 -0.421875 1.71875 -0.78125 L 1.71875 -2.3125 C 1.71875 -3.296875 2.140625 -4.1875 2.890625 -4.1875 C 2.953125 -4.1875 2.984375 -4.1875 3 -4.171875 C 2.96875 -4.171875 2.765625 -4.046875 2.765625 -3.78125 C 2.765625 -3.515625 2.984375 -3.359375 3.203125 -3.359375 C 3.375 -3.359375 3.625 -3.484375 3.625 -3.796875 C 3.625 -4.109375 3.3125 -4.40625 2.890625 -4.40625 C 2.15625 -4.40625 1.796875 -3.734375 1.671875 -3.3125 Z M 1.671875 -3.3125 "
               style="stroke:none;" />
          </symbol>
          <symbol
             id="textext-7b6cb8b9-4"
             overflow="visible">
            <path
               id="path4836"
               d="M 3.3125 -0.75 C 3.359375 -0.359375 3.625 0.0625 4.09375 0.0625 C 4.3125 0.0625 4.921875 -0.078125 4.921875 -0.890625 L 4.921875 -1.453125 L 4.671875 -1.453125 L 4.671875 -0.890625 C 4.671875 -0.3125 4.421875 -0.25 4.3125 -0.25 C 3.984375 -0.25 3.9375 -0.703125 3.9375 -0.75 L 3.9375 -2.734375 C 3.9375 -3.15625 3.9375 -3.546875 3.578125 -3.921875 C 3.1875 -4.3125 2.6875 -4.46875 2.21875 -4.46875 C 1.390625 -4.46875 0.703125 -4 0.703125 -3.34375 C 0.703125 -3.046875 0.90625 -2.875 1.171875 -2.875 C 1.453125 -2.875 1.625 -3.078125 1.625 -3.328125 C 1.625 -3.453125 1.578125 -3.78125 1.109375 -3.78125 C 1.390625 -4.140625 1.875 -4.25 2.1875 -4.25 C 2.6875 -4.25 3.25 -3.859375 3.25 -2.96875 L 3.25 -2.609375 C 2.734375 -2.578125 2.046875 -2.546875 1.421875 -2.25 C 0.671875 -1.90625 0.421875 -1.390625 0.421875 -0.953125 C 0.421875 -0.140625 1.390625 0.109375 2.015625 0.109375 C 2.671875 0.109375 3.125 -0.296875 3.3125 -0.75 Z M 3.25 -2.390625 L 3.25 -1.390625 C 3.25 -0.453125 2.53125 -0.109375 2.078125 -0.109375 C 1.59375 -0.109375 1.1875 -0.453125 1.1875 -0.953125 C 1.1875 -1.5 1.609375 -2.328125 3.25 -2.390625 Z M 3.25 -2.390625 "
               style="stroke:none;" />
          </symbol>
          <symbol
             id="textext-7b6cb8b9-5"
             overflow="visible">
            <path
               id="path4839"
               d="M 2.21875 -1.71875 C 1.34375 -1.71875 1.34375 -2.71875 1.34375 -2.9375 C 1.34375 -3.203125 1.359375 -3.53125 1.5 -3.78125 C 1.578125 -3.890625 1.8125 -4.171875 2.21875 -4.171875 C 3.078125 -4.171875 3.078125 -3.1875 3.078125 -2.953125 C 3.078125 -2.6875 3.078125 -2.359375 2.921875 -2.109375 C 2.84375 -2 2.609375 -1.71875 2.21875 -1.71875 Z M 1.0625 -1.328125 C 1.0625 -1.359375 1.0625 -1.59375 1.21875 -1.796875 C 1.609375 -1.515625 2.03125 -1.484375 2.21875 -1.484375 C 3.140625 -1.484375 3.828125 -2.171875 3.828125 -2.9375 C 3.828125 -3.3125 3.671875 -3.671875 3.421875 -3.90625 C 3.78125 -4.25 4.140625 -4.296875 4.3125 -4.296875 C 4.34375 -4.296875 4.390625 -4.296875 4.421875 -4.28125 C 4.3125 -4.25 4.25 -4.140625 4.25 -4.015625 C 4.25 -3.84375 4.390625 -3.734375 4.546875 -3.734375 C 4.640625 -3.734375 4.828125 -3.796875 4.828125 -4.03125 C 4.828125 -4.203125 4.71875 -4.515625 4.328125 -4.515625 C 4.125 -4.515625 3.6875 -4.453125 3.265625 -4.046875 C 2.84375 -4.375 2.4375 -4.40625 2.21875 -4.40625 C 1.28125 -4.40625 0.59375 -3.71875 0.59375 -2.953125 C 0.59375 -2.515625 0.8125 -2.140625 1.0625 -1.921875 C 0.9375 -1.78125 0.75 -1.453125 0.75 -1.09375 C 0.75 -0.78125 0.890625 -0.40625 1.203125 -0.203125 C 0.59375 -0.046875 0.28125 0.390625 0.28125 0.78125 C 0.28125 1.5 1.265625 2.046875 2.484375 2.046875 C 3.65625 2.046875 4.6875 1.546875 4.6875 0.765625 C 4.6875 0.421875 4.5625 -0.09375 4.046875 -0.375 C 3.515625 -0.640625 2.9375 -0.640625 2.328125 -0.640625 C 2.078125 -0.640625 1.65625 -0.640625 1.578125 -0.65625 C 1.265625 -0.703125 1.0625 -1 1.0625 -1.328125 Z M 2.5 1.828125 C 1.484375 1.828125 0.796875 1.3125 0.796875 0.78125 C 0.796875 0.328125 1.171875 -0.046875 1.609375 -0.0625 L 2.203125 -0.0625 C 3.0625 -0.0625 4.171875 -0.0625 4.171875 0.78125 C 4.171875 1.328125 3.46875 1.828125 2.5 1.828125 Z M 2.5 1.828125 "
               style="stroke:none;" />
          </symbol>
          <symbol
             id="textext-7b6cb8b9-6"
             overflow="visible">
            <path
               id="path4842"
               d="M 1.765625 -4.40625 L 0.375 -4.296875 L 0.375 -3.984375 C 1.015625 -3.984375 1.109375 -3.921875 1.109375 -3.4375 L 1.109375 -0.75 C 1.109375 -0.3125 1 -0.3125 0.328125 -0.3125 L 0.328125 0 C 0.640625 -0.015625 1.1875 -0.03125 1.421875 -0.03125 C 1.78125 -0.03125 2.125 -0.015625 2.46875 0 L 2.46875 -0.3125 C 1.796875 -0.3125 1.765625 -0.359375 1.765625 -0.75 Z M 1.796875 -6.140625 C 1.796875 -6.453125 1.5625 -6.671875 1.28125 -6.671875 C 0.96875 -6.671875 0.75 -6.40625 0.75 -6.140625 C 0.75 -5.875 0.96875 -5.609375 1.28125 -5.609375 C 1.5625 -5.609375 1.796875 -5.828125 1.796875 -6.140625 Z M 1.796875 -6.140625 "
               style="stroke:none;" />
          </symbol>
          <symbol
             id="textext-7b6cb8b9-7"
             overflow="visible">
            <path
               id="path4845"
               d="M 4.140625 -3.3125 C 4.234375 -3.546875 4.40625 -3.984375 5.0625 -3.984375 L 5.0625 -4.296875 C 4.828125 -4.28125 4.546875 -4.265625 4.3125 -4.265625 C 4.078125 -4.265625 3.625 -4.28125 3.453125 -4.296875 L 3.453125 -3.984375 C 3.8125 -3.984375 3.921875 -3.75 3.921875 -3.5625 C 3.921875 -3.46875 3.90625 -3.421875 3.875 -3.3125 L 2.84375 -0.78125 L 1.734375 -3.5625 C 1.671875 -3.6875 1.671875 -3.703125 1.671875 -3.734375 C 1.671875 -3.984375 2.0625 -3.984375 2.25 -3.984375 L 2.25 -4.296875 C 1.9375 -4.28125 1.390625 -4.265625 1.15625 -4.265625 C 0.890625 -4.265625 0.484375 -4.28125 0.1875 -4.296875 L 0.1875 -3.984375 C 0.8125 -3.984375 0.859375 -3.921875 0.984375 -3.625 L 2.421875 -0.078125 C 2.484375 0.0625 2.5 0.109375 2.625 0.109375 C 2.765625 0.109375 2.796875 0.015625 2.84375 -0.078125 Z M 4.140625 -3.3125 "
               style="stroke:none;" />
          </symbol>
          <symbol
             id="textext-7b6cb8b9-8"
             overflow="visible">
            <path
               id="path4848"
               d="M 1.109375 -2.515625 C 1.171875 -4 2.015625 -4.25 2.359375 -4.25 C 3.375 -4.25 3.484375 -2.90625 3.484375 -2.515625 Z M 1.109375 -2.296875 L 3.890625 -2.296875 C 4.109375 -2.296875 4.140625 -2.296875 4.140625 -2.515625 C 4.140625 -3.5 3.59375 -4.46875 2.359375 -4.46875 C 1.203125 -4.46875 0.28125 -3.4375 0.28125 -2.1875 C 0.28125 -0.859375 1.328125 0.109375 2.46875 0.109375 C 3.6875 0.109375 4.140625 -1 4.140625 -1.1875 C 4.140625 -1.28125 4.0625 -1.3125 4 -1.3125 C 3.921875 -1.3125 3.890625 -1.25 3.875 -1.171875 C 3.53125 -0.140625 2.625 -0.140625 2.53125 -0.140625 C 2.03125 -0.140625 1.640625 -0.4375 1.40625 -0.8125 C 1.109375 -1.28125 1.109375 -1.9375 1.109375 -2.296875 Z M 1.109375 -2.296875 "
               style="stroke:none;" />
          </symbol>
          <symbol
             id="textext-7b6cb8b9-9"
             overflow="visible">
            <path
               id="path4851"
               d="M 1.09375 -3.421875 L 1.09375 -0.75 C 1.09375 -0.3125 0.984375 -0.3125 0.3125 -0.3125 L 0.3125 0 C 0.671875 -0.015625 1.171875 -0.03125 1.453125 -0.03125 C 1.703125 -0.03125 2.21875 -0.015625 2.5625 0 L 2.5625 -0.3125 C 1.890625 -0.3125 1.78125 -0.3125 1.78125 -0.75 L 1.78125 -2.59375 C 1.78125 -3.625 2.5 -4.1875 3.125 -4.1875 C 3.765625 -4.1875 3.875 -3.65625 3.875 -3.078125 L 3.875 -0.75 C 3.875 -0.3125 3.765625 -0.3125 3.09375 -0.3125 L 3.09375 0 C 3.4375 -0.015625 3.953125 -0.03125 4.21875 -0.03125 C 4.46875 -0.03125 5 -0.015625 5.328125 0 L 5.328125 -0.3125 C 4.8125 -0.3125 4.5625 -0.3125 4.5625 -0.609375 L 4.5625 -2.515625 C 4.5625 -3.375 4.5625 -3.671875 4.25 -4.03125 C 4.109375 -4.203125 3.78125 -4.40625 3.203125 -4.40625 C 2.46875 -4.40625 2 -3.984375 1.71875 -3.359375 L 1.71875 -4.40625 L 0.3125 -4.296875 L 0.3125 -3.984375 C 1.015625 -3.984375 1.09375 -3.921875 1.09375 -3.421875 Z M 1.09375 -3.421875 "
               style="stroke:none;" />
          </symbol>
          <symbol
             id="textext-7b6cb8b9-10"
             overflow="visible">
            <path
               id="path4854"
               d="M 3.296875 2.390625 C 3.296875 2.359375 3.296875 2.34375 3.125 2.171875 C 1.890625 0.921875 1.5625 -0.96875 1.5625 -2.5 C 1.5625 -4.234375 1.9375 -5.96875 3.171875 -7.203125 C 3.296875 -7.328125 3.296875 -7.34375 3.296875 -7.375 C 3.296875 -7.453125 3.265625 -7.484375 3.203125 -7.484375 C 3.09375 -7.484375 2.203125 -6.796875 1.609375 -5.53125 C 1.109375 -4.4375 0.984375 -3.328125 0.984375 -2.5 C 0.984375 -1.71875 1.09375 -0.515625 1.640625 0.625 C 2.25 1.84375 3.09375 2.5 3.203125 2.5 C 3.265625 2.5 3.296875 2.46875 3.296875 2.390625 Z M 3.296875 2.390625 "
               style="stroke:none;" />
          </symbol>
          <symbol
             id="textext-7b6cb8b9-11"
             overflow="visible">
            <path
               id="path4857"
               d="M 6.84375 -3.265625 C 7 -3.265625 7.1875 -3.265625 7.1875 -3.453125 C 7.1875 -3.65625 7 -3.65625 6.859375 -3.65625 L 0.890625 -3.65625 C 0.75 -3.65625 0.5625 -3.65625 0.5625 -3.453125 C 0.5625 -3.265625 0.75 -3.265625 0.890625 -3.265625 Z M 6.859375 -1.328125 C 7 -1.328125 7.1875 -1.328125 7.1875 -1.53125 C 7.1875 -1.71875 7 -1.71875 6.84375 -1.71875 L 0.890625 -1.71875 C 0.75 -1.71875 0.5625 -1.71875 0.5625 -1.53125 C 0.5625 -1.328125 0.75 -1.328125 0.890625 -1.328125 Z M 6.859375 -1.328125 "
               style="stroke:none;" />
          </symbol>
          <symbol
             id="textext-7b6cb8b9-12"
             overflow="visible">
            <path
               id="path4860"
               d="M 2.875 -2.5 C 2.875 -3.265625 2.765625 -4.46875 2.21875 -5.609375 C 1.625 -6.828125 0.765625 -7.484375 0.671875 -7.484375 C 0.609375 -7.484375 0.5625 -7.4375 0.5625 -7.375 C 0.5625 -7.34375 0.5625 -7.328125 0.75 -7.140625 C 1.734375 -6.15625 2.296875 -4.578125 2.296875 -2.5 C 2.296875 -0.78125 1.9375 0.96875 0.703125 2.21875 C 0.5625 2.34375 0.5625 2.359375 0.5625 2.390625 C 0.5625 2.453125 0.609375 2.5 0.671875 2.5 C 0.765625 2.5 1.671875 1.8125 2.25 0.546875 C 2.765625 -0.546875 2.875 -1.65625 2.875 -2.5 Z M 2.875 -2.5 "
               style="stroke:none;" />
          </symbol>
          <symbol
             id="textext-7b6cb8b9-13"
             overflow="visible">
            <path
               id="path4863"
               d="M 2.03125 -0.015625 C 2.03125 -0.640625 1.78125 -1.0625 1.390625 -1.0625 C 1.03125 -1.0625 0.859375 -0.78125 0.859375 -0.53125 C 0.859375 -0.265625 1.03125 0 1.390625 0 C 1.546875 0 1.671875 -0.0625 1.765625 -0.140625 L 1.78125 -0.15625 C 1.796875 -0.15625 1.796875 -0.15625 1.796875 -0.015625 C 1.796875 0.625 1.53125 1.234375 1.09375 1.703125 C 1.03125 1.765625 1.015625 1.78125 1.015625 1.8125 C 1.015625 1.890625 1.0625 1.921875 1.109375 1.921875 C 1.234375 1.921875 2.03125 1.140625 2.03125 -0.015625 Z M 2.03125 -0.015625 "
               style="stroke:none;" />
          </symbol>
          <symbol
             id="textext-7b6cb8b9-14"
             overflow="visible">
            <path
               id="path4866"
               d="M 1.90625 -0.53125 C 1.90625 -0.8125 1.671875 -1.0625 1.390625 -1.0625 C 1.09375 -1.0625 0.859375 -0.8125 0.859375 -0.53125 C 0.859375 -0.234375 1.09375 0 1.390625 0 C 1.671875 0 1.90625 -0.234375 1.90625 -0.53125 Z M 1.90625 -0.53125 "
               style="stroke:none;" />
          </symbol>
          <symbol
             id="textext-7b6cb8b9-15"
             overflow="visible">
            <path
               id="path4869"
               d=""
               style="stroke:none;" />
          </symbol>
          <symbol
             id="textext-7b6cb8b9-16"
             overflow="visible">
            <path
               id="path4872"
               d="M 2.046875 -3.984375 L 2.984375 -3.984375 C 3.1875 -3.984375 3.296875 -3.984375 3.296875 -4.1875 C 3.296875 -4.296875 3.1875 -4.296875 3.015625 -4.296875 L 2.140625 -4.296875 C 2.5 -5.71875 2.546875 -5.90625 2.546875 -5.96875 C 2.546875 -6.140625 2.421875 -6.234375 2.25 -6.234375 C 2.21875 -6.234375 1.9375 -6.234375 1.859375 -5.875 L 1.46875 -4.296875 L 0.53125 -4.296875 C 0.328125 -4.296875 0.234375 -4.296875 0.234375 -4.109375 C 0.234375 -3.984375 0.3125 -3.984375 0.515625 -3.984375 L 1.390625 -3.984375 C 0.671875 -1.15625 0.625 -0.984375 0.625 -0.8125 C 0.625 -0.265625 1 0.109375 1.546875 0.109375 C 2.5625 0.109375 3.125 -1.34375 3.125 -1.421875 C 3.125 -1.53125 3.046875 -1.53125 3.015625 -1.53125 C 2.921875 -1.53125 2.90625 -1.5 2.859375 -1.390625 C 2.4375 -0.34375 1.90625 -0.109375 1.5625 -0.109375 C 1.359375 -0.109375 1.25 -0.234375 1.25 -0.5625 C 1.25 -0.8125 1.28125 -0.875 1.3125 -1.046875 Z M 2.046875 -3.984375 "
               style="stroke:none;" />
          </symbol>
          <symbol
             id="textext-7b6cb8b9-17"
             overflow="visible">
            <path
               id="path4875"
               d="M 2.03125 -0.015625 C 2.03125 -0.671875 1.78125 -1.0625 1.390625 -1.0625 C 1.0625 -1.0625 0.859375 -0.8125 0.859375 -0.53125 C 0.859375 -0.265625 1.0625 0 1.390625 0 C 1.5 0 1.640625 -0.046875 1.734375 -0.125 C 1.765625 -0.15625 1.78125 -0.15625 1.78125 -0.15625 C 1.796875 -0.15625 1.796875 -0.15625 1.796875 -0.015625 C 1.796875 0.734375 1.453125 1.328125 1.125 1.65625 C 1.015625 1.765625 1.015625 1.78125 1.015625 1.8125 C 1.015625 1.890625 1.0625 1.921875 1.109375 1.921875 C 1.21875 1.921875 2.03125 1.15625 2.03125 -0.015625 Z M 2.03125 -0.015625 "
               style="stroke:none;" />
          </symbol>
          <symbol
             id="textext-7b6cb8b9-18"
             overflow="visible">
            <path
               id="path4878"
               d="M 2.859375 -6.8125 C 2.859375 -6.8125 2.859375 -6.921875 2.734375 -6.921875 C 2.5 -6.921875 1.78125 -6.84375 1.515625 -6.8125 C 1.4375 -6.8125 1.328125 -6.796875 1.328125 -6.625 C 1.328125 -6.5 1.421875 -6.5 1.5625 -6.5 C 2.046875 -6.5 2.0625 -6.4375 2.0625 -6.328125 L 2.03125 -6.125 L 0.59375 -0.390625 C 0.546875 -0.25 0.546875 -0.234375 0.546875 -0.171875 C 0.546875 0.0625 0.75 0.109375 0.84375 0.109375 C 0.96875 0.109375 1.109375 0.015625 1.171875 -0.09375 C 1.21875 -0.1875 1.671875 -2.03125 1.734375 -2.28125 C 2.078125 -2.25 2.890625 -2.09375 2.890625 -1.4375 C 2.890625 -1.359375 2.890625 -1.328125 2.859375 -1.21875 C 2.84375 -1.109375 2.828125 -0.984375 2.828125 -0.875 C 2.828125 -0.296875 3.21875 0.109375 3.734375 0.109375 C 4.03125 0.109375 4.3125 -0.046875 4.53125 -0.421875 C 4.78125 -0.859375 4.890625 -1.40625 4.890625 -1.421875 C 4.890625 -1.53125 4.796875 -1.53125 4.765625 -1.53125 C 4.671875 -1.53125 4.65625 -1.484375 4.625 -1.34375 C 4.421875 -0.625 4.203125 -0.109375 3.765625 -0.109375 C 3.5625 -0.109375 3.4375 -0.21875 3.4375 -0.578125 C 3.4375 -0.75 3.484375 -0.984375 3.515625 -1.140625 C 3.5625 -1.3125 3.5625 -1.34375 3.5625 -1.453125 C 3.5625 -2.09375 2.9375 -2.375 2.078125 -2.5 C 2.390625 -2.671875 2.71875 -2.984375 2.9375 -3.234375 C 3.421875 -3.765625 3.875 -4.1875 4.359375 -4.1875 C 4.421875 -4.1875 4.4375 -4.1875 4.453125 -4.171875 C 4.578125 -4.15625 4.578125 -4.15625 4.671875 -4.09375 C 4.6875 -4.09375 4.6875 -4.078125 4.703125 -4.0625 C 4.234375 -4.03125 4.140625 -3.640625 4.140625 -3.515625 C 4.140625 -3.359375 4.25 -3.171875 4.515625 -3.171875 C 4.78125 -3.171875 5.0625 -3.390625 5.0625 -3.78125 C 5.0625 -4.078125 4.828125 -4.40625 4.390625 -4.40625 C 4.109375 -4.40625 3.65625 -4.328125 2.9375 -3.53125 C 2.59375 -3.15625 2.203125 -2.75 1.828125 -2.609375 Z M 2.859375 -6.8125 "
               style="stroke:none;" />
          </symbol>
          <symbol
             id="textext-7b6cb8b9-19"
             overflow="visible">
            <path
               id="path4881"
               d="M 1.53125 -3.046875 C 0.453125 -2.328125 0.234375 -1.390625 0.234375 -1.03125 C 0.234375 -0.5625 0.5 -0.28125 0.515625 -0.25 C 0.84375 0.078125 0.921875 0.125 1.671875 0.40625 L 2.875 0.875 C 3.03125 0.9375 3.234375 1 3.234375 1.296875 C 3.234375 1.53125 3.046875 1.828125 2.734375 1.828125 C 2.296875 1.828125 1.96875 1.578125 1.859375 1.5 C 1.796875 1.46875 1.796875 1.453125 1.75 1.453125 C 1.671875 1.453125 1.65625 1.53125 1.65625 1.5625 C 1.65625 1.6875 2.1875 2.046875 2.734375 2.046875 C 3.359375 2.046875 3.78125 1.46875 3.78125 0.984375 C 3.78125 0.5 3.40625 0.3125 3.296875 0.265625 C 3.15625 0.21875 2.828125 0.09375 2.6875 0.046875 C 2.5 -0.046875 2.296875 -0.125 2.078125 -0.1875 L 1.484375 -0.421875 C 1.03125 -0.609375 0.734375 -0.890625 0.734375 -1.3125 C 0.734375 -1.71875 1.125 -2.59375 1.96875 -3.015625 C 2.328125 -2.875 2.625 -2.875 2.84375 -2.875 C 3.140625 -2.875 3.765625 -2.875 3.765625 -3.1875 C 3.765625 -3.4375 3.34375 -3.453125 2.953125 -3.453125 C 2.765625 -3.453125 2.484375 -3.453125 2.109375 -3.34375 C 1.859375 -3.59375 1.8125 -3.921875 1.8125 -4.109375 C 1.8125 -4.671875 2.171875 -5.4375 2.921875 -5.8125 C 3.09375 -5.59375 3.328125 -5.59375 3.5625 -5.59375 C 3.8125 -5.59375 4.453125 -5.59375 4.453125 -5.90625 C 4.453125 -6.15625 4 -6.171875 3.625 -6.171875 C 3.484375 -6.171875 3.25 -6.171875 2.984375 -6.125 C 2.953125 -6.203125 2.9375 -6.28125 2.9375 -6.453125 C 2.9375 -6.59375 2.984375 -6.796875 2.984375 -6.8125 C 2.984375 -6.890625 2.9375 -6.953125 2.875 -6.953125 C 2.6875 -6.953125 2.6875 -6.484375 2.6875 -6.453125 C 2.6875 -6.265625 2.75 -6.109375 2.765625 -6.078125 C 1.6875 -5.765625 1.015625 -4.96875 1.015625 -4.203125 C 1.015625 -3.84375 1.203125 -3.421875 1.671875 -3.15625 Z M 3.15625 -5.90625 C 3.3125 -5.953125 3.515625 -5.953125 3.625 -5.953125 C 3.96875 -5.953125 4 -5.9375 4.1875 -5.890625 C 4.109375 -5.859375 4 -5.8125 3.5625 -5.8125 C 3.375 -5.8125 3.265625 -5.8125 3.15625 -5.90625 Z M 2.375 -3.1875 C 2.609375 -3.234375 2.828125 -3.234375 2.9375 -3.234375 C 3.296875 -3.234375 3.328125 -3.234375 3.515625 -3.1875 C 3.421875 -3.140625 3.328125 -3.09375 2.875 -3.09375 C 2.640625 -3.09375 2.546875 -3.09375 2.375 -3.1875 Z M 2.375 -3.1875 "
               style="stroke:none;" />
          </symbol>
          <symbol
             id="textext-7b6cb8b9-20"
             overflow="visible">
            <path
               id="path4884"
               d="M 1.328125 -0.828125 C 1.859375 -1.40625 2.15625 -1.65625 2.515625 -1.96875 C 2.515625 -1.96875 3.125 -2.5 3.484375 -2.859375 C 4.4375 -3.78125 4.65625 -4.265625 4.65625 -4.3125 C 4.65625 -4.40625 4.5625 -4.40625 4.546875 -4.40625 C 4.46875 -4.40625 4.453125 -4.390625 4.390625 -4.296875 C 4.09375 -3.8125 3.890625 -3.65625 3.65625 -3.65625 C 3.40625 -3.65625 3.296875 -3.8125 3.140625 -3.984375 C 2.953125 -4.203125 2.78125 -4.40625 2.453125 -4.40625 C 1.703125 -4.40625 1.25 -3.484375 1.25 -3.265625 C 1.25 -3.21875 1.28125 -3.15625 1.359375 -3.15625 C 1.453125 -3.15625 1.46875 -3.203125 1.5 -3.265625 C 1.6875 -3.734375 2.265625 -3.734375 2.34375 -3.734375 C 2.546875 -3.734375 2.734375 -3.671875 2.96875 -3.59375 C 3.375 -3.4375 3.484375 -3.4375 3.734375 -3.4375 C 3.375 -3.015625 2.546875 -2.296875 2.359375 -2.140625 L 1.453125 -1.296875 C 0.78125 -0.625 0.421875 -0.0625 0.421875 0.015625 C 0.421875 0.109375 0.53125 0.109375 0.546875 0.109375 C 0.625 0.109375 0.640625 0.09375 0.703125 -0.015625 C 0.9375 -0.375 1.234375 -0.640625 1.5625 -0.640625 C 1.78125 -0.640625 1.890625 -0.546875 2.140625 -0.265625 C 2.296875 -0.046875 2.484375 0.109375 2.765625 0.109375 C 3.765625 0.109375 4.34375 -1.15625 4.34375 -1.421875 C 4.34375 -1.46875 4.296875 -1.53125 4.21875 -1.53125 C 4.125 -1.53125 4.109375 -1.46875 4.078125 -1.390625 C 3.84375 -0.75 3.203125 -0.5625 2.875 -0.5625 C 2.6875 -0.5625 2.5 -0.625 2.296875 -0.6875 C 1.953125 -0.8125 1.796875 -0.859375 1.59375 -0.859375 C 1.578125 -0.859375 1.421875 -0.859375 1.328125 -0.828125 Z M 1.328125 -0.828125 "
               style="stroke:none;" />
          </symbol>
          <symbol
             id="textext-7b6cb8b9-21"
             overflow="visible">
            <path
               id="path4887"
               d=""
               style="stroke:none;" />
          </symbol>
          <symbol
             id="textext-7b6cb8b9-22"
             overflow="visible">
            <path
               id="path4890"
               d="M 2.328125 -4.4375 C 2.328125 -4.625 2.328125 -4.625 2.125 -4.625 C 1.671875 -4.1875 1.046875 -4.1875 0.765625 -4.1875 L 0.765625 -3.9375 C 0.921875 -3.9375 1.390625 -3.9375 1.765625 -4.125 L 1.765625 -0.578125 C 1.765625 -0.34375 1.765625 -0.25 1.078125 -0.25 L 0.8125 -0.25 L 0.8125 0 C 0.9375 0 1.796875 -0.03125 2.046875 -0.03125 C 2.265625 -0.03125 3.140625 0 3.296875 0 L 3.296875 -0.25 L 3.03125 -0.25 C 2.328125 -0.25 2.328125 -0.34375 2.328125 -0.578125 Z M 2.328125 -4.4375 "
               style="stroke:none;" />
          </symbol>
          <symbol
             id="textext-7b6cb8b9-23"
             overflow="visible">
            <path
               id="path4893"
               d="M 3.515625 -1.265625 L 3.28125 -1.265625 C 3.265625 -1.109375 3.1875 -0.703125 3.09375 -0.640625 C 3.046875 -0.59375 2.515625 -0.59375 2.40625 -0.59375 L 1.125 -0.59375 C 1.859375 -1.234375 2.109375 -1.4375 2.515625 -1.765625 C 3.03125 -2.171875 3.515625 -2.609375 3.515625 -3.265625 C 3.515625 -4.109375 2.78125 -4.625 1.890625 -4.625 C 1.03125 -4.625 0.4375 -4.015625 0.4375 -3.375 C 0.4375 -3.03125 0.734375 -2.984375 0.8125 -2.984375 C 0.96875 -2.984375 1.171875 -3.109375 1.171875 -3.359375 C 1.171875 -3.484375 1.125 -3.734375 0.765625 -3.734375 C 0.984375 -4.21875 1.453125 -4.375 1.78125 -4.375 C 2.484375 -4.375 2.84375 -3.828125 2.84375 -3.265625 C 2.84375 -2.65625 2.40625 -2.1875 2.1875 -1.9375 L 0.515625 -0.265625 C 0.4375 -0.203125 0.4375 -0.1875 0.4375 0 L 3.3125 0 Z M 3.515625 -1.265625 "
               style="stroke:none;" />
          </symbol>
          <symbol
             id="textext-7b6cb8b9-24"
             overflow="visible">
            <path
               id="path4896"
               d=""
               style="stroke:none;" />
          </symbol>
          <symbol
             id="textext-7b6cb8b9-25"
             overflow="visible">
            <path
               id="path4899"
               d="M 5.9375 -1.640625 C 5.984375 -1.015625 6.09375 -0.5625 6.15625 -0.375 C 6.265625 0.078125 6.3125 0.296875 6.734375 0.296875 C 7.1875 0.296875 7.953125 -0.15625 7.953125 -0.34375 C 7.953125 -0.40625 7.921875 -0.421875 7.859375 -0.421875 C 7.734375 -0.421875 7.53125 -0.3125 7.5 -0.296875 C 7.421875 -0.25 7.40625 -0.25 7.390625 -0.25 C 7.109375 -0.25 7.046875 -0.515625 6.921875 -1.109375 C 6.859375 -1.453125 6.765625 -1.84375 6.6875 -3.203125 C 6.625 -4.234375 6.578125 -5.25 6.578125 -6.265625 C 6.578125 -6.5 6.59375 -6.765625 6.59375 -7 C 6.59375 -7.15625 6.59375 -7.203125 6.484375 -7.203125 C 6.34375 -7.203125 5.9375 -7.03125 5.75 -6.765625 L 5.6875 -6.65625 C 4.890625 -4.96875 4.15625 -3.765625 3.640625 -2.953125 C 3.046875 -2.046875 2.015625 -0.421875 1.46875 -0.421875 C 1.109375 -0.421875 0.796875 -0.65625 0.703125 -1.015625 C 0.703125 -1.03125 0.671875 -1.09375 0.640625 -1.09375 C 0.484375 -1.09375 0.265625 -0.625 0.265625 -0.34375 C 0.265625 0.0625 0.703125 0.5 1.171875 0.5 C 1.859375 0.5 3 -1.296875 3.21875 -1.640625 Z M 5.734375 -5.96875 L 5.734375 -5.390625 C 5.734375 -4.8125 5.75 -4.234375 5.78125 -3.65625 C 5.796875 -3.453125 5.828125 -2.71875 5.875 -2.1875 L 4.0625 -2.1875 C 3.890625 -2.1875 3.75 -2.1875 3.484375 -2.03125 C 4.1875 -3.109375 4.765625 -4.140625 4.828125 -4.25 C 5.328125 -5.140625 5.59375 -5.71875 5.71875 -5.96875 Z M 5.734375 -5.96875 "
               style="stroke:none;" />
          </symbol>
        </g>
      </defs>
      <g
         id="textext-7b6cb8b9-26">
        <g
           id="g4902"
           style="fill:rgb(0%,0%,0%);fill-opacity:1;">
          <use
             id="use4904"
             y="134.765"
             x="223.432"
             xlink:href="#textext-7b6cb8b9-1" />
        </g>
        <g
           id="g4906"
           style="fill:rgb(0%,0%,0%);fill-opacity:1;">
          <use
             id="use4908"
             y="134.765"
             x="229.108689"
             xlink:href="#textext-7b6cb8b9-2" />
          <use
             id="use4910"
             y="134.765"
             x="234.089989"
             xlink:href="#textext-7b6cb8b9-3" />
        </g>
        <g
           id="g4912"
           style="fill:rgb(0%,0%,0%);fill-opacity:1;">
          <use
             id="use4914"
             y="134.765"
             x="241.309886"
             xlink:href="#textext-7b6cb8b9-4" />
        </g>
        <g
           id="g4916"
           style="fill:rgb(0%,0%,0%);fill-opacity:1;">
          <use
             id="use4918"
             y="134.765"
             x="249.608732"
             xlink:href="#textext-7b6cb8b9-5" />
          <use
             id="use4920"
             y="134.765"
             x="254.590032"
             xlink:href="#textext-7b6cb8b9-6" />
          <use
             id="use4922"
             y="134.765"
             x="257.357642"
             xlink:href="#textext-7b6cb8b9-7" />
        </g>
        <g
           id="g4924"
           style="fill:rgb(0%,0%,0%);fill-opacity:1;">
          <use
             id="use4926"
             y="134.765"
             x="262.336949"
             xlink:href="#textext-7b6cb8b9-8" />
        </g>
        <g
           id="g4928"
           style="fill:rgb(0%,0%,0%);fill-opacity:1;">
          <use
             id="use4930"
             y="134.765"
             x="266.774291"
             xlink:href="#textext-7b6cb8b9-9" />
        </g>
        <g
           id="g4932"
           style="fill:rgb(0%,0%,0%);fill-opacity:1;">
          <use
             id="use4934"
             y="134.765"
             x="275.625"
             xlink:href="#textext-7b6cb8b9-16" />
        </g>
        <g
           id="g4936"
           style="fill:rgb(0%,0%,0%);fill-opacity:1;">
          <use
             id="use4938"
             y="136.259"
             x="279.223"
             xlink:href="#textext-7b6cb8b9-22" />
        </g>
        <g
           id="g4940"
           style="fill:rgb(0%,0%,0%);fill-opacity:1;">
          <use
             id="use4942"
             y="134.765"
             x="283.692"
             xlink:href="#textext-7b6cb8b9-17" />
        </g>
        <g
           id="g4944"
           style="fill:rgb(0%,0%,0%);fill-opacity:1;">
          <use
             id="use4946"
             y="134.765"
             x="288.123364"
             xlink:href="#textext-7b6cb8b9-16" />
        </g>
        <g
           id="g4948"
           style="fill:rgb(0%,0%,0%);fill-opacity:1;">
          <use
             id="use4950"
             y="136.259"
             x="291.718"
             xlink:href="#textext-7b6cb8b9-23" />
        </g>
        <g
           id="g4952"
           style="fill:rgb(0%,0%,0%);fill-opacity:1;">
          <use
             id="use4954"
             y="134.765"
             x="296.187"
             xlink:href="#textext-7b6cb8b9-17" />
        </g>
        <g
           id="g4956"
           style="fill:rgb(0%,0%,0%);fill-opacity:1;">
          <use
             id="use4958"
             y="134.765"
             x="300.618364"
             xlink:href="#textext-7b6cb8b9-18" />
        </g>
        <g
           id="g4960"
           style="fill:rgb(0%,0%,0%);fill-opacity:1;">
          <use
             id="use4962"
             y="134.765"
             x="306.113735"
             xlink:href="#textext-7b6cb8b9-17" />
        </g>
        <g
           id="g4964"
           style="fill:rgb(0%,0%,0%);fill-opacity:1;">
          <use
             id="use4966"
             y="134.765"
             x="310.545099"
             xlink:href="#textext-7b6cb8b9-19" />
        </g>
        <g
           id="g4968"
           style="fill:rgb(0%,0%,0%);fill-opacity:1;">
          <use
             id="use4970"
             y="134.765"
             x="315.36"
             xlink:href="#textext-7b6cb8b9-10" />
        </g>
        <g
           id="g4972"
           style="fill:rgb(0%,0%,0%);fill-opacity:1;">
          <use
             id="use4974"
             y="134.765"
             x="319.234"
             xlink:href="#textext-7b6cb8b9-20" />
        </g>
        <g
           id="g4976"
           style="fill:rgb(0%,0%,0%);fill-opacity:1;">
          <use
             id="use4978"
             y="134.765"
             x="324.30596"
             xlink:href="#textext-7b6cb8b9-17" />
        </g>
        <g
           id="g4980"
           style="fill:rgb(0%,0%,0%);fill-opacity:1;">
          <use
             id="use4982"
             y="134.765"
             x="328.737324"
             xlink:href="#textext-7b6cb8b9-16" />
        </g>
        <g
           id="g4984"
           style="fill:rgb(0%,0%,0%);fill-opacity:1;">
          <use
             id="use4986"
             y="134.765"
             x="335.098"
             xlink:href="#textext-7b6cb8b9-11" />
        </g>
        <g
           id="g4988"
           style="fill:rgb(0%,0%,0%);fill-opacity:1;">
          <use
             id="use4990"
             y="134.765"
             x="345.614"
             xlink:href="#textext-7b6cb8b9-16" />
        </g>
        <g
           id="g4992"
           style="fill:rgb(0%,0%,0%);fill-opacity:1;">
          <use
             id="use4994"
             y="136.259"
             x="349.212"
             xlink:href="#textext-7b6cb8b9-22" />
        </g>
        <g
           id="g4996"
           style="fill:rgb(0%,0%,0%);fill-opacity:1;">
          <use
             id="use4998"
             y="134.765"
             x="353.681"
             xlink:href="#textext-7b6cb8b9-12" />
          <use
             id="use5000"
             y="134.765"
             x="357.555455"
             xlink:href="#textext-7b6cb8b9-13" />
        </g>
        <g
           id="g5002"
           style="fill:rgb(0%,0%,0%);fill-opacity:1;">
          <use
             id="use5004"
             y="149.554"
             x="246.678"
             xlink:href="#textext-7b6cb8b9-19" />
        </g>
        <g
           id="g5006"
           style="fill:rgb(0%,0%,0%);fill-opacity:1;">
          <use
             id="use5008"
             y="149.554"
             x="251.495"
             xlink:href="#textext-7b6cb8b9-10" />
        </g>
        <g
           id="g5010"
           style="fill:rgb(0%,0%,0%);fill-opacity:1;">
          <use
             id="use5012"
             y="149.554"
             x="255.37"
             xlink:href="#textext-7b6cb8b9-20" />
        </g>
        <g
           id="g5014"
           style="fill:rgb(0%,0%,0%);fill-opacity:1;">
          <use
             id="use5016"
             y="149.554"
             x="260.44196"
             xlink:href="#textext-7b6cb8b9-17" />
        </g>
        <g
           id="g5018"
           style="fill:rgb(0%,0%,0%);fill-opacity:1;">
          <use
             id="use5020"
             y="149.554"
             x="264.873324"
             xlink:href="#textext-7b6cb8b9-16" />
        </g>
        <g
           id="g5022"
           style="fill:rgb(0%,0%,0%);fill-opacity:1;">
          <use
             id="use5024"
             y="151.049"
             x="268.466"
             xlink:href="#textext-7b6cb8b9-23" />
        </g>
        <g
           id="g5026"
           style="fill:rgb(0%,0%,0%);fill-opacity:1;">
          <use
             id="use5028"
             y="149.554"
             x="272.936"
             xlink:href="#textext-7b6cb8b9-12" />
        </g>
        <g
           id="g5030"
           style="fill:rgb(0%,0%,0%);fill-opacity:1;">
          <use
             id="use5032"
             y="149.554"
             x="279.580058"
             xlink:href="#textext-7b6cb8b9-11" />
        </g>
        <g
           id="g5034"
           style="fill:rgb(0%,0%,0%);fill-opacity:1;">
          <use
             id="use5036"
             y="149.554"
             x="290.093"
             xlink:href="#textext-7b6cb8b9-25" />
        </g>
        <g
           id="g5038"
           style="fill:rgb(0%,0%,0%);fill-opacity:1;">
          <use
             id="use5040"
             y="149.554"
             x="301.369"
             xlink:href="#textext-7b6cb8b9-19" />
        </g>
        <g
           id="g5042"
           style="fill:rgb(0%,0%,0%);fill-opacity:1;">
          <use
             id="use5044"
             y="149.554"
             x="306.186"
             xlink:href="#textext-7b6cb8b9-10" />
        </g>
        <g
           id="g5046"
           style="fill:rgb(0%,0%,0%);fill-opacity:1;">
          <use
             id="use5048"
             y="149.554"
             x="310.061"
             xlink:href="#textext-7b6cb8b9-20" />
        </g>
        <g
           id="g5050"
           style="fill:rgb(0%,0%,0%);fill-opacity:1;">
          <use
             id="use5052"
             y="149.554"
             x="315.13296"
             xlink:href="#textext-7b6cb8b9-17" />
        </g>
        <g
           id="g5054"
           style="fill:rgb(0%,0%,0%);fill-opacity:1;">
          <use
             id="use5056"
             y="149.554"
             x="319.564324"
             xlink:href="#textext-7b6cb8b9-16" />
        </g>
        <g
           id="g5058"
           style="fill:rgb(0%,0%,0%);fill-opacity:1;">
          <use
             id="use5060"
             y="151.049"
             x="323.157"
             xlink:href="#textext-7b6cb8b9-22" />
        </g>
        <g
           id="g5062"
           style="fill:rgb(0%,0%,0%);fill-opacity:1;">
          <use
             id="use5064"
             y="149.554"
             x="327.627"
             xlink:href="#textext-7b6cb8b9-12" />
          <use
             id="use5066"
             y="149.554"
             x="331.501455"
             xlink:href="#textext-7b6cb8b9-14" />
        </g>
      </g>
    </g>
  </g>
</svg>
